<?xml version="1.0" encoding="utf-8"?>
<!-- Generator: Adobe Illustrator 25.0.0, SVG Export Plug-In . SVG Version: 6.00 Build 0)  -->
<svg version="1.1" id="Layer_1" xmlns="http://www.w3.org/2000/svg" xmlns:xlink="http://www.w3.org/1999/xlink" x="0px" y="0px"
	 viewBox="0 0 100 100" style="enable-background:new 0 0 100 100;" xml:space="preserve">
<style type="text/css">
	.st0{fill:#F5E748;}
	.st1{fill:#00B2D1;}
	.st2{fill:#5AC8E1;}
</style>
<g>
	<path class="st0" d="M44.56,65.88c1.51,0.1,3.04,0.16,4.59,0.16c1.72,0,3.42-0.08,5.1-0.2c0.38-0.03,0.77-0.06,1.15-0.09
		c1.61-0.14,3.21-0.33,4.79-0.58c-0.54-1.16-1.25-2.27-2.21-3.22c-4.42-4.42-11.58-4.42-16,0c-1.02,1.02-1.78,2.19-2.33,3.44
		c1.41,0.19,2.85,0.34,4.3,0.45C44.14,65.85,44.35,65.87,44.56,65.88z"/>
	<path class="st1" d="M60.31,65.16c1.93,4.2,1.2,9.32-2.26,12.77c-4.44,4.44-11.64,4.44-16.08,0c-3.4-3.4-4.17-8.4-2.38-12.55
		c0.01,0,0.01,0,0.02,0c-1.25-0.17-2.5-0.37-3.72-0.61c-0.59,1.63-0.91,3.35-0.91,5.12c0,4.02,1.56,7.8,4.4,10.64
		c2.84,2.84,6.62,4.41,10.64,4.41c4.02,0,7.8-1.57,10.64-4.41c2.84-2.83,4.4-6.61,4.4-10.64c0-1.89-0.36-3.72-1.02-5.43
		c-1.23,0.27-2.48,0.5-3.74,0.71C60.29,65.16,60.3,65.16,60.31,65.16z"/>
	<path class="st1" d="M66.19,63.92c0.69,1.89,1.07,3.9,1.07,5.97c0,4.61-1.79,8.95-5.05,12.2c-3.26,3.26-7.59,5.06-12.2,5.06
		c-4.61,0-8.94-1.8-12.2-5.06c-3.25-3.25-5.05-7.58-5.05-12.2c0-1.93,0.33-3.8,0.94-5.58c-12.68-2.89-23.63-9.23-31.33-17.75
		c-0.72,9.64,1.48,19.25,6.5,27.75C15.36,85.3,25.75,93.1,38.11,96.28c12.36,3.18,25.22,1.35,36.21-5.14
		c10.99-6.49,18.79-16.88,21.97-29.24c1.46-5.69,1.82-11.48,1.19-17.16C90.05,53.8,79.06,60.66,66.19,63.92z"/>
	<path class="st1" d="M55.39,65.75c-0.38,0.03-0.76,0.07-1.15,0.09C54.63,65.81,55.01,65.78,55.39,65.75z"/>
	<path class="st1" d="M44.56,65.88c-0.21-0.01-0.42-0.03-0.62-0.05C44.14,65.85,44.35,65.87,44.56,65.88z"/>
	<path class="st0" d="M93.05,24.57C86.26,13.07,75.39,4.91,62.46,1.58C49.52-1.75,36.07,0.17,24.58,6.96
		C13.08,13.75,4.91,24.61,1.59,37.55c-3.33,12.93-1.42,26.39,5.38,37.89c6.79,11.5,17.66,19.66,30.59,22.99
		c4.15,1.07,8.36,1.6,12.54,1.6c8.83,0,17.54-2.36,25.35-6.97C99.18,79.02,107.07,48.3,93.05,24.57z M25.7,8.86
		C33.16,4.45,41.48,2.2,49.93,2.2c3.99,0,8.01,0.51,11.98,1.53C74.27,6.9,84.65,14.7,91.15,25.69c3.5,5.93,5.6,12.41,6.33,19.05
		c0.63,5.67,0.27,11.46-1.19,17.16c-3.18,12.36-10.98,22.75-21.97,29.24c-10.99,6.49-23.85,8.32-36.21,5.14
		C25.75,93.1,15.36,85.3,8.87,74.31c-5.02-8.5-7.22-18.11-6.5-27.75c0.21-2.83,0.64-5.66,1.36-8.46
		C6.91,25.74,14.71,15.35,25.7,8.86z"/>
	<path class="st0" d="M37.81,82.09c3.26,3.26,7.59,5.06,12.2,5.06c4.61,0,8.95-1.8,12.2-5.06c3.25-3.25,5.05-7.58,5.05-12.2
		c0-2.07-0.38-4.08-1.07-5.97c-0.81-2.2-2.05-4.22-3.71-5.96V24.62c0-6.88-5.59-12.47-12.47-12.47s-12.47,5.59-12.47,12.47v33.35
		c-1.75,1.83-3.04,4-3.84,6.34c-0.6,1.77-0.94,3.65-0.94,5.58C32.76,74.5,34.55,78.84,37.81,82.09z M39.51,59.09l0.23-0.3V24.62
		c0-5.66,4.6-10.26,10.26-10.26c5.66,0,10.26,4.6,10.26,10.26v33.8l0.05,0.51l0.32,0.32c1.5,1.5,2.64,3.28,3.38,5.21
		c0.66,1.71,1.02,3.54,1.02,5.43c0,4.02-1.56,7.8-4.4,10.64c-2.84,2.84-6.62,4.41-10.64,4.41c-4.02,0-7.8-1.57-10.64-4.41
		c-2.84-2.83-4.4-6.61-4.4-10.64c0-1.77,0.32-3.49,0.91-5.12C36.64,62.7,37.85,60.77,39.51,59.09z"/>
	<path class="st2" d="M41.97,77.93c4.44,4.44,11.64,4.44,16.08,0c3.46-3.46,4.19-8.58,2.26-12.77c-0.01,0-0.02,0-0.03,0
		c-0.03,0.01-0.07,0.01-0.11,0.01c-1.57,0.25-3.17,0.43-4.79,0.58c-0.38,0.03-0.76,0.07-1.15,0.09c-1.68,0.12-3.38,0.2-5.1,0.2
		c-1.55,0-3.07-0.06-4.59-0.16c-0.21-0.01-0.42-0.03-0.62-0.05c-1.45-0.11-2.88-0.26-4.3-0.45c-0.01,0-0.02,0-0.03,0
		c-0.01,0-0.01,0-0.02,0C37.79,69.53,38.57,74.53,41.97,77.93z"/>
</g>
</svg>
