<?xml version="1.0" encoding="utf-8"?>
<!-- Generator: Adobe Illustrator 25.0.0, SVG Export Plug-In . SVG Version: 6.00 Build 0)  -->
<svg version="1.1" id="Layer_1" xmlns="http://www.w3.org/2000/svg" xmlns:xlink="http://www.w3.org/1999/xlink" x="0px" y="0px"
	 viewBox="0 0 100 100" style="enable-background:new 0 0 100 100;" xml:space="preserve">
<style type="text/css">
	.st0{fill:#F5E748;}
	.st1{fill:#00B2D1;}
</style>
<g>
	<path class="st0" d="M42.81,99.48c-1.02-0.15-2.03-0.32-3.02-0.53C40.78,99.16,41.79,99.33,42.81,99.48z"/>
	<path class="st0" d="M56.87,99.52c-0.9,0.12-1.8,0.22-2.71,0.3C55.07,99.74,55.97,99.64,56.87,99.52z"/>
	<path class="st0" d="M36.03,98.01c-0.81-0.24-1.61-0.49-2.41-0.77C34.42,97.52,35.22,97.77,36.03,98.01z"/>
	<path class="st0" d="M33.12,97.07c-0.97-0.35-1.92-0.72-2.86-1.13C31.2,96.35,32.15,96.72,33.12,97.07z"/>
	<path class="st0" d="M53.28,99.88C52.19,99.95,51.1,100,50,100C51.1,100,52.19,99.95,53.28,99.88z"/>
	<path class="st0" d="M94.98,71.85C98.19,65.25,100,57.83,100,50c0-27.61-22.39-50-50-50C22.39,0,0,22.38,0,50
		c0,9.96,2.93,19.24,7.95,27.03c-0.58-0.9-1.13-1.82-1.65-2.75C42.04,91.15,75.74,77.66,94.98,71.85z"/>
	<path class="st0" d="M50,100C50,100,50,100,50,100c-1.05,0-2.1-0.04-3.14-0.11C47.9,99.96,48.94,100,50,100z"/>
	<path class="st0" d="M45.97,99.82c-0.79-0.06-1.58-0.15-2.37-0.25C44.39,99.68,45.18,99.76,45.97,99.82z"/>
	<path class="st0" d="M39.44,98.87c-0.89-0.19-1.77-0.41-2.64-0.65C37.67,98.46,38.55,98.68,39.44,98.87z"/>
	<path class="st0" d="M18.81,89.06c-1.65-1.32-3.21-2.73-4.67-4.24C15.6,86.33,17.16,87.75,18.81,89.06z"/>
	<path class="st0" d="M93.19,75.18c-1.07,1.82-2.24,3.58-3.52,5.24C90.95,78.76,92.12,77.01,93.19,75.18z"/>
	<path class="st0" d="M21.39,91c-0.78-0.55-1.55-1.12-2.3-1.71C19.84,89.88,20.61,90.45,21.39,91z"/>
	<path class="st0" d="M29.9,95.78c-0.82-0.36-1.63-0.75-2.43-1.15C28.27,95.04,29.08,95.42,29.9,95.78z"/>
	<path class="st0" d="M26.92,94.35c-1.83-0.96-3.6-2.02-5.3-3.19C23.31,92.33,25.08,93.39,26.92,94.35z"/>
	<path class="st0" d="M11.87,82.33c-1.39-1.64-2.68-3.37-3.85-5.18C9.19,78.96,10.48,80.69,11.87,82.33z"/>
	<path class="st0" d="M79.55,90.33c-0.77,0.57-1.56,1.11-2.37,1.63C77.98,91.44,78.77,90.9,79.55,90.33z"/>
	<path class="st0" d="M70.39,95.65c-0.81,0.36-1.63,0.71-2.47,1.03C68.76,96.36,69.58,96.01,70.39,95.65z"/>
	<path class="st0" d="M82.22,88.22c-0.8,0.68-1.62,1.33-2.47,1.96C80.6,89.56,81.42,88.9,82.22,88.22z"/>
	<path class="st0" d="M87.24,83.36c-0.7,0.78-1.43,1.55-2.18,2.29C85.8,84.91,86.53,84.14,87.24,83.36z"/>
	<path class="st0" d="M84.69,85.99c-0.65,0.63-1.32,1.24-2.01,1.83C83.37,87.23,84.04,86.62,84.69,85.99z"/>
	<path class="st0" d="M93.52,74.61c0.5-0.88,0.98-1.78,1.43-2.69C94.5,72.84,94.02,73.73,93.52,74.61z"/>
	<path class="st0" d="M14.01,84.68c-0.72-0.74-1.41-1.51-2.08-2.29C12.6,83.18,13.29,83.94,14.01,84.68z"/>
	<path class="st0" d="M76.58,92.34c-1.76,1.11-3.6,2.11-5.5,2.99C72.98,94.45,74.81,93.45,76.58,92.34z"/>
	<path class="st0" d="M63.77,98.06c-0.82,0.23-1.65,0.45-2.49,0.64C62.12,98.51,62.95,98.3,63.77,98.06z"/>
	<path class="st0" d="M60.53,98.88c-1.03,0.22-2.07,0.41-3.12,0.57C58.46,99.29,59.5,99.1,60.53,98.88z"/>
	<path class="st0" d="M67.43,96.87c-0.97,0.36-1.96,0.69-2.97,0.99C65.47,97.56,66.46,97.23,67.43,96.87z"/>
	<path class="st0" d="M89.29,80.91c-0.58,0.73-1.17,1.45-1.78,2.14C88.12,82.35,88.71,81.64,89.29,80.91z"/>
	<path class="st1" d="M94.98,71.85C94.98,71.85,94.98,71.85,94.98,71.85c-19.24,5.81-52.94,19.31-88.69,2.43
		c0.52,0.94,1.07,1.85,1.65,2.75c0.02,0.04,0.05,0.08,0.07,0.11c1.17,1.81,2.46,3.54,3.85,5.18c0.02,0.02,0.04,0.04,0.06,0.06
		c0.67,0.79,1.36,1.55,2.08,2.29c0.04,0.04,0.08,0.09,0.13,0.13c1.47,1.51,3.03,2.93,4.67,4.24c0.09,0.08,0.19,0.15,0.28,0.22
		c0.75,0.59,1.52,1.16,2.3,1.71c0.08,0.05,0.15,0.11,0.23,0.16c1.69,1.17,3.46,2.23,5.3,3.19c0.18,0.1,0.37,0.19,0.55,0.28
		c0.8,0.4,1.61,0.79,2.43,1.15c0.12,0.05,0.24,0.11,0.36,0.16c0.94,0.4,1.89,0.78,2.86,1.13c0.17,0.06,0.34,0.11,0.5,0.17
		c0.79,0.28,1.6,0.53,2.41,0.77c0.26,0.07,0.51,0.15,0.77,0.22c0.87,0.24,1.75,0.46,2.64,0.65c0.12,0.02,0.23,0.06,0.34,0.08
		c1,0.21,2.01,0.38,3.02,0.53c0.26,0.04,0.53,0.07,0.8,0.1c0.78,0.1,1.57,0.18,2.37,0.25c0.3,0.02,0.59,0.05,0.89,0.07
		C47.9,99.96,48.94,100,50,100c0,0,0,0,0,0c0,0,0,0,0,0c1.1,0,2.19-0.05,3.27-0.12c0.29-0.02,0.59-0.04,0.88-0.07
		c0.91-0.08,1.82-0.17,2.71-0.3c0.18-0.02,0.36-0.04,0.54-0.07c1.05-0.16,2.09-0.35,3.12-0.57c0.25-0.05,0.5-0.12,0.75-0.17
		c0.84-0.19,1.67-0.41,2.49-0.64c0.23-0.07,0.47-0.13,0.7-0.2c1-0.3,1.99-0.63,2.97-0.99c0.17-0.06,0.33-0.13,0.49-0.19
		c0.83-0.32,1.66-0.66,2.47-1.03c0.23-0.1,0.46-0.2,0.69-0.31c1.9-0.89,3.73-1.89,5.5-2.99c0.2-0.13,0.4-0.26,0.6-0.39
		c0.8-0.52,1.6-1.06,2.37-1.63c0.07-0.05,0.14-0.1,0.21-0.15c0.84-0.63,1.67-1.28,2.47-1.96c0.16-0.13,0.31-0.27,0.46-0.4
		c0.68-0.59,1.35-1.2,2.01-1.83c0.12-0.12,0.24-0.23,0.36-0.34c0.75-0.74,1.48-1.5,2.18-2.29c0.09-0.1,0.18-0.21,0.27-0.31
		c0.61-0.7,1.21-1.41,1.78-2.14c0.13-0.16,0.25-0.32,0.38-0.48c1.28-1.67,2.46-3.42,3.52-5.24c0.11-0.19,0.22-0.38,0.33-0.57
		c0.5-0.88,0.98-1.78,1.43-2.69C94.96,71.9,94.97,71.87,94.98,71.85z"/>
</g>
</svg>
