<?xml version="1.0" encoding="utf-8"?>
<!-- Generator: Adobe Illustrator 25.0.0, SVG Export Plug-In . SVG Version: 6.00 Build 0)  -->
<svg version="1.1" id="Layer_1" xmlns="http://www.w3.org/2000/svg" xmlns:xlink="http://www.w3.org/1999/xlink" x="0px" y="0px"
	 viewBox="0 0 100 100" style="enable-background:new 0 0 100 100;" xml:space="preserve">
<style type="text/css">
	.st0{fill:#00B2D1;}
	.st1{fill:#F5E748;}
	.st2{fill:#5AC8E1;}
</style>
<g>
	<path class="st0" d="M48.74,77.2c-1.69-0.08-3.35-0.33-4.97-0.71l-1.67,6.23c-0.1,0.37-0.43,0.62-0.8,0.62
		c-0.07,0-0.14-0.01-0.21-0.03c-0.44-0.12-0.71-0.57-0.59-1.02l1.67-6.25c-1.66-0.5-3.26-1.16-4.79-1.96l-4.9,8.49
		c2.6,1.39,5.37,2.52,8.3,3.28c2.69,0.69,5.41,1.04,8.12,1.13l0-9.78C48.85,77.19,48.79,77.2,48.74,77.2z"/>
	<path class="st0" d="M59.52,82.29c0.12,0.44-0.14,0.9-0.59,1.02c-0.44,0.13-0.9-0.14-1.02-0.59l-1.68-6.25
		c-1.71,0.4-3.43,0.65-5.13,0.72l0,9.8c5.7-0.16,11.28-1.67,16.41-4.44l-4.89-8.46c-1.51,0.79-3.11,1.44-4.8,1.94L59.52,82.29z"/>
	<path class="st0" d="M74.39,73.21c0.32,0.32,0.32,0.85,0,1.17c-0.32,0.32-0.85,0.33-1.17,0l-4.56-4.56
		c-1.25,1.18-2.62,2.24-4.1,3.17l4.88,8.46c4.96-3.07,9.07-7.16,12.05-12l-8.52-4.91C72.06,66,71,67.37,69.81,68.63L74.39,73.21z"/>
	<path class="st0" d="M17.71,59.52c-0.45,0.12-0.9-0.14-1.02-0.59c-0.12-0.44,0.14-0.9,0.59-1.02l6.25-1.68
		c-0.15-0.62-0.28-1.24-0.38-1.85c-0.05-0.32-0.08-0.65-0.13-0.97c-0.06-0.5-0.12-1-0.16-1.49c-0.02-0.27-0.04-0.54-0.05-0.81
		l-9.8,0c0.16,5.7,1.67,11.28,4.44,16.41l8.46-4.89c-0.79-1.51-1.44-3.11-1.94-4.8L17.71,59.52z"/>
	<path class="st0" d="M26.79,74.38c-0.32,0.32-0.85,0.33-1.17,0c-0.32-0.32-0.32-0.85,0-1.17l4.56-4.56
		c-0.02-0.02-0.04-0.03-0.05-0.05c-0.74-0.79-1.42-1.64-2.07-2.53c-0.36-0.5-0.72-1-1.05-1.52l-8.46,4.88
		c3.07,4.96,7.16,9.07,12,12.05l4.91-8.52C34,72.05,32.63,71,31.37,69.81L26.79,74.38z"/>
	<path class="st0" d="M87.98,59.77c-2.61,10.14-9.01,18.67-18.03,24c-6.12,3.62-12.95,5.47-19.89,5.47c-3.28,0-6.58-0.41-9.83-1.25
		c-10.15-2.61-18.67-9.01-24-18.03c-5.33-9.02-6.83-19.57-4.22-29.72c0.54-2.11,1.29-4.13,2.15-6.08C11.64,32.59,9.29,30.86,7.1,29
		C0.29,42.96,0.37,59.97,8.85,74.32c6.49,10.99,16.88,18.8,29.25,21.98c12.36,3.18,25.23,1.35,36.22-5.14
		C96.29,78.17,104,50.24,92.3,27.87c-2.11,1.93-4.41,3.71-6.87,5.34C89.37,41.49,90.3,50.79,87.98,59.77z"/>
	<path class="st0" d="M22.8,48.9c0.01-0.25,0.04-0.5,0.06-0.74c0.02-0.28,0.05-0.55,0.08-0.82c0.12-1.21,0.3-2.4,0.57-3.56
		l-6.23-1.67c-0.44-0.12-0.71-0.57-0.59-1.02c0.12-0.44,0.58-0.7,1.02-0.59l6.25,1.67c0.28-0.92,0.6-1.82,0.97-2.7
		c0-0.01,0-0.01,0.01-0.02c-3.11-1.17-6.07-2.58-8.86-4.17c-0.76,1.77-1.43,3.59-1.92,5.5c-0.69,2.69-1.04,5.41-1.13,8.12L22.8,48.9
		z"/>
	<path class="st0" d="M76.49,56.24l6.23,1.67c0.44,0.12,0.71,0.57,0.59,1.02c-0.12,0.44-0.56,0.71-1.02,0.59l-6.25-1.67
		c-0.12,0.4-0.22,0.8-0.35,1.19c-0.44,1.24-0.99,2.44-1.6,3.6l8.49,4.9c1.39-2.6,2.52-5.37,3.28-8.3c0.69-2.69,1.04-5.41,1.13-8.12
		l-9.78,0C77.13,52.85,76.88,54.56,76.49,56.24z"/>
	<path class="st0" d="M75.63,40.88c0.15,0.42,0.27,0.86,0.41,1.29l6.26-1.68c0.45-0.12,0.9,0.14,1.02,0.59
		c0.12,0.44-0.14,0.9-0.59,1.02l-6.25,1.68c0.4,1.71,0.65,3.43,0.72,5.13l9.8,0c-0.14-4.99-1.28-9.9-3.42-14.48
		c-2.75,1.68-5.69,3.15-8.78,4.42C75.09,39.49,75.38,40.17,75.63,40.88z"/>
	<path class="st1" d="M26.79,25.62c-0.32-0.32-0.85-0.32-1.17,0c-0.32,0.32-0.32,0.85,0,1.17l4.58,4.58
		c0.38-0.4,0.75-0.81,1.15-1.19L26.79,25.62z"/>
	<path class="st1" d="M43.76,23.53l-1.68-6.25c-0.12-0.44-0.56-0.71-1.02-0.59c-0.44,0.12-0.71,0.57-0.59,1.02l1.68,6.26
		c0.32-0.1,0.63-0.22,0.96-0.3C43.33,23.61,43.55,23.58,43.76,23.53z"/>
	<path class="st1" d="M57.83,23.96l1.68-6.26c0.12-0.44-0.14-0.9-0.59-1.02c-0.45-0.12-0.9,0.15-1.02,0.59l-1.67,6.23
		C56.77,23.64,57.3,23.8,57.83,23.96z"/>
	<path class="st1" d="M74.38,26.79c0.32-0.32,0.32-0.85,0-1.17c-0.32-0.32-0.85-0.32-1.17,0l-4.57,4.58
		c0.4,0.38,0.81,0.75,1.19,1.15L74.38,26.79z"/>
	<path class="st1" d="M25.62,74.39c0.32,0.32,0.85,0.32,1.17,0l4.58-4.58c-0.4-0.38-0.81-0.75-1.19-1.15l-4.56,4.56
		C25.3,73.54,25.3,74.06,25.62,74.39z"/>
	<path class="st1" d="M40.49,82.29c-0.12,0.44,0.14,0.9,0.59,1.02c0.07,0.02,0.14,0.03,0.21,0.03c0.37,0,0.7-0.24,0.8-0.62
		l1.67-6.23c-0.54-0.13-1.07-0.29-1.6-0.45L40.49,82.29z"/>
	<path class="st1" d="M74.39,74.38c0.32-0.32,0.32-0.85,0-1.17l-4.58-4.57c-0.38,0.4-0.75,0.81-1.15,1.19l4.56,4.56
		C73.54,74.7,74.06,74.7,74.39,74.38z"/>
	<path class="st1" d="M83.31,58.92c0.12-0.44-0.14-0.9-0.59-1.02l-6.23-1.67c-0.13,0.54-0.29,1.07-0.45,1.6l6.25,1.67
		C82.75,59.63,83.19,59.36,83.31,58.92z"/>
	<path class="st1" d="M17.71,40.5c-0.44-0.12-0.9,0.14-1.02,0.59c-0.12,0.44,0.14,0.9,0.59,1.02l6.23,1.67
		c0.13-0.54,0.29-1.07,0.45-1.6L17.71,40.5z"/>
	<path class="st1" d="M76.34,43.12c0.06,0.21,0.08,0.43,0.13,0.64l6.25-1.68c0.44-0.12,0.71-0.57,0.59-1.02
		c-0.12-0.44-0.56-0.7-1.02-0.59l-6.26,1.68c0.04,0.12,0.08,0.24,0.12,0.37C76.21,42.73,76.28,42.92,76.34,43.12z"/>
	<path class="st1" d="M16.69,58.93c0.12,0.44,0.57,0.71,1.02,0.59l6.26-1.68c-0.1-0.32-0.22-0.63-0.3-0.96
		c-0.01-0.03-0.01-0.07-0.02-0.1c-0.05-0.18-0.07-0.36-0.12-0.54l-6.25,1.68C16.84,58.03,16.57,58.49,16.69,58.93z"/>
	<path class="st1" d="M58.93,83.31c0.44-0.12,0.71-0.57,0.59-1.02l-1.68-6.26c-0.32,0.1-0.63,0.22-0.96,0.3
		c-0.21,0.06-0.43,0.08-0.64,0.13l1.68,6.25C58.03,83.16,58.49,83.43,58.93,83.31z"/>
	<path class="st1" d="M93.06,24.56c-6.79-11.5-17.66-19.67-30.6-22.99c-12.94-3.33-26.4-1.42-37.9,5.38
		C0.82,20.97-7.08,51.7,6.94,75.44c6.8,11.5,17.66,19.67,30.6,23c4.15,1.07,8.36,1.6,12.54,1.6c8.84,0,17.55-2.36,25.36-6.98
		C99.18,79.03,107.08,48.3,93.06,24.56z M25.68,8.85c7.61-4.5,15.98-6.64,24.24-6.64c16.36,0,32.32,8.4,41.23,23.47
		c0.42,0.72,0.77,1.46,1.15,2.19c11.7,22.36,3.99,50.29-17.98,63.28c-10.99,6.49-23.86,8.32-36.22,5.14
		C25.73,93.11,15.34,85.31,8.85,74.32C0.37,59.97,0.29,42.96,7.1,29C11.07,20.88,17.34,13.78,25.68,8.85z"/>
	<path class="st1" d="M16.23,69.95c5.33,9.02,13.85,15.43,24,18.03c3.26,0.84,6.56,1.25,9.83,1.25c6.93,0,13.76-1.85,19.89-5.47
		c9.02-5.33,15.42-13.85,18.03-24c2.31-8.98,1.39-18.28-2.55-26.56c-0.51-1.07-1.06-2.13-1.67-3.16
		c-11-18.62-35.1-24.81-53.72-13.82C22.9,20.46,17.44,26.7,14.16,34.15c-0.86,1.95-1.6,3.97-2.15,6.08
		C9.41,50.38,10.9,60.93,16.23,69.95z M16.08,35.29c0.41-0.96,0.86-1.89,1.35-2.81l8.49,4.9c0.34-0.65,0.71-1.29,1.1-1.92
		l-8.52-4.91c2.98-4.84,7.08-8.94,12.05-12L35.44,27c0.62-0.39,1.27-0.75,1.92-1.09l-4.9-8.48c5.22-2.81,10.83-4.24,16.42-4.4
		l0,9.78c0.74-0.03,1.48-0.04,2.21-0.01l0-9.77c5.73,0.18,11.36,1.68,16.42,4.39l-4.9,8.49c0.65,0.34,1.29,0.71,1.92,1.1l4.9-8.49
		c4.76,2.93,8.91,6.97,12.03,12.02L73,35.44c0.39,0.62,0.75,1.27,1.09,1.92l8.46-4.89c0.34,0.64,0.71,1.27,1.01,1.92
		c2.14,4.59,3.28,9.5,3.42,14.48l-9.8,0c0.03,0.74,0.04,1.48,0.01,2.21l9.78,0c-0.09,2.71-0.44,5.43-1.13,8.12
		c-0.75,2.93-1.88,5.7-3.28,8.3l-8.49-4.9c-0.34,0.65-0.71,1.29-1.1,1.92l8.52,4.91c-2.98,4.84-7.08,8.94-12.05,12L64.56,73
		c-0.62,0.39-1.27,0.75-1.92,1.09l4.89,8.46c-5.13,2.76-10.71,4.27-16.41,4.44l0-9.8c-0.74,0.03-1.48,0.04-2.21,0.01l0,9.78
		c-2.71-0.09-5.43-0.44-8.12-1.13c-2.93-0.75-5.7-1.88-8.3-3.28l4.9-8.49c-0.65-0.34-1.29-0.71-1.92-1.1l-4.91,8.52
		c-4.84-2.98-8.94-7.09-12-12.05L27,64.56c-0.39-0.62-0.75-1.27-1.09-1.92l-8.46,4.89c-2.77-5.13-4.28-10.71-4.44-16.41l9.8,0
		c-0.01-0.13,0-0.26,0-0.39c-0.01-0.4-0.01-0.79,0-1.18c0-0.21-0.01-0.43,0-0.64l-9.78,0c0.09-2.71,0.44-5.43,1.13-8.12
		C14.65,38.88,15.31,37.06,16.08,35.29z"/>
	<path class="st2" d="M76.33,43.12c-0.05-0.2-0.13-0.39-0.19-0.59c-0.04-0.12-0.08-0.25-0.12-0.37c-0.13-0.43-0.25-0.87-0.41-1.29
		c-0.26-0.7-0.54-1.38-0.84-2.06c-7.76,3.17-16.48,4.97-25.71,4.97c-8.61,0-16.78-1.55-24.14-4.33c0,0,0,0,0,0
		c0,0.01,0,0.01-0.01,0.02c-1.05,2.48-1.72,5.13-1.99,7.86c-0.03,0.27-0.06,0.55-0.08,0.82c-0.03,0.46-0.04,0.92-0.05,1.38
		c-0.01,0.39-0.01,0.79,0,1.18c0.01,0.4,0.03,0.8,0.05,1.2c0.03,0.5,0.09,1,0.16,1.49c0.04,0.32,0.07,0.65,0.13,0.97
		c0.1,0.62,0.24,1.24,0.38,1.85c0.04,0.18,0.07,0.36,0.12,0.54c0.01,0.03,0.01,0.07,0.02,0.1c0.89,3.42,2.42,6.51,4.39,9.2
		c0.65,0.88,1.33,1.74,2.07,2.53c4.8,5.12,11.48,8.27,18.62,8.59c0.05,0,0.11,0,0.16,0c0.73,0.03,1.47,0.02,2.21-0.01
		c1.7-0.07,3.41-0.31,5.13-0.72c0.21-0.05,0.43-0.08,0.64-0.13c0.33-0.09,0.64-0.21,0.96-0.3c1.69-0.51,3.29-1.16,4.8-1.94
		c0.66-0.34,1.3-0.7,1.92-1.09c1.48-0.93,2.85-2,4.1-3.17c0.4-0.38,0.78-0.79,1.15-1.19c1.19-1.26,2.25-2.63,3.17-4.09
		c0.39-0.62,0.76-1.26,1.1-1.92c0.61-1.16,1.17-2.36,1.6-3.6C77.43,54.08,77.76,48.58,76.33,43.12z"/>
</g>
</svg>
