<?xml version="1.0" encoding="utf-8"?>
<!-- Generator: Adobe Illustrator 25.0.0, SVG Export Plug-In . SVG Version: 6.00 Build 0)  -->
<svg version="1.1" id="Layer_1" xmlns="http://www.w3.org/2000/svg" xmlns:xlink="http://www.w3.org/1999/xlink" x="0px" y="0px"
	 viewBox="0 0 100 100" style="enable-background:new 0 0 100 100;" xml:space="preserve">
<style type="text/css">
	.st0{fill:#F5E748;}
	.st1{fill:#00B2D1;}
	.st2{fill:#5AC8E1;}
</style>
<g>
	<path class="st0" d="M84.06,35.87c-0.23-0.57-0.88-0.83-1.44-0.6l-12.18,4.99c0.31,0.67,0.58,1.36,0.82,2.05l12.2-5
		C84.02,37.08,84.29,36.44,84.06,35.87z"/>
	<path class="st0" d="M64.4,16.06c-0.56-0.24-1.21,0.03-1.45,0.59l-4.99,11.92c0.69,0.26,1.36,0.55,2.03,0.88l5-11.95
		C65.22,16.94,64.96,16.3,64.4,16.06z"/>
	<path class="st0" d="M36.48,15.95c-0.57,0.23-0.84,0.88-0.6,1.44l4.81,11.74c0.67-0.31,1.36-0.58,2.05-0.82l-4.82-11.77
		C37.69,15.99,37.04,15.72,36.48,15.95z"/>
	<path class="st0" d="M23.57,21.69c-0.43-0.43-1.13-0.43-1.56,0c-0.43,0.43-0.43,1.13,0,1.56l11.31,11.3
		c0.26-0.29,0.5-0.58,0.78-0.86c0.25-0.25,0.52-0.47,0.78-0.71L23.57,21.69z"/>
	<path class="st0" d="M16.67,35.62c-0.24,0.56,0.03,1.21,0.59,1.45l11.62,4.86c0.25-0.69,0.53-1.37,0.85-2.04l-11.62-4.86
		C17.55,34.79,16.9,35.06,16.67,35.62z"/>
	<path class="st0" d="M77.96,21.65c-0.43-0.43-1.13-0.43-1.56,0L65.1,32.96c0.27,0.24,0.55,0.47,0.8,0.73
		c0.27,0.27,0.5,0.56,0.76,0.84l11.3-11.31C78.39,22.79,78.39,22.09,77.96,21.65z"/>
	<path class="st0" d="M51.08,11.19c0-0.61-0.5-1.11-1.11-1.11c0,0,0,0,0,0c-0.61,0-1.1,0.5-1.1,1.11l0.01,15.97
		c0.74-0.04,1.47-0.04,2.21,0L51.08,11.19z"/>
	<path class="st0" d="M37.71,53.99c0.04,0.01,0.08,0.02,0.13,0.02c1.11,0.18,2.24,0.34,3.37,0.47c0.13,0.02,0.27,0.03,0.4,0.05
		c1.05,0.11,2.11,0.2,3.18,0.26c0.2,0.01,0.4,0.03,0.6,0.04c1.24,0.07,2.49,0.1,3.75,0.1c1.37,0,2.73-0.05,4.07-0.13
		c0.35-0.02,0.69-0.05,1.03-0.08c1.03-0.07,2.05-0.16,3.06-0.28c0.34-0.04,0.67-0.08,1.01-0.13c1.06-0.14,2.12-0.3,3.16-0.49
		c0.24-0.04,0.47-0.08,0.71-0.13c1.26-0.24,2.52-0.51,3.75-0.82c0.01,0,0.01,0,0.02,0c1.07-5.18-0.41-10.79-4.43-14.81
		c-6.36-6.36-16.67-6.36-23.03,0c-4.13,4.13-5.56,9.93-4.33,15.23c0,0,0,0,0,0C35.33,53.56,36.51,53.79,37.71,53.99z"/>
	<path class="st1" d="M23,76.59c14.89,14.88,39.11,14.88,54,0c9.14-9.14,12.64-21.79,10.56-33.65c-6.19,4.5-13.54,7.92-21.61,9.94
		c-0.01,0-0.01,0-0.02,0c0.01,0,0.01,0,0.02,0c-0.62,3.01-2.09,5.89-4.43,8.23c-6.36,6.36-16.67,6.36-23.03,0
		c-2.23-2.23-3.66-4.95-4.33-7.8c0,0,0,0,0,0c0,0,0,0,0,0c-8.12-1.79-15.56-4.98-21.89-9.27c-0.27,1.83-0.45,3.68-0.45,5.56
		C11.82,59.79,15.79,69.38,23,76.59z"/>
	<path class="st1" d="M89.53,41.45c2.63,12.86-1.01,26.75-10.97,36.71C70.69,86.03,60.34,89.97,50,89.97s-20.69-3.94-28.56-11.81
		C13.81,70.53,9.61,60.38,9.61,49.59c0-2.38,0.24-4.71,0.64-7c-2.24-1.66-4.32-3.47-6.23-5.39c-0.09,0.31-0.2,0.6-0.28,0.91
		C0.56,50.46,2.38,63.32,8.88,74.3c6.49,10.98,16.87,18.78,29.23,21.96c12.36,3.18,25.21,1.35,36.2-5.14
		c10.99-6.49,18.78-16.87,21.96-29.23c2.24-8.73,1.94-17.69-0.69-26.08C93.73,37.82,91.72,39.71,89.53,41.45z"/>
	<path class="st1" d="M54.24,54.74c-0.34,0.02-0.68,0.06-1.03,0.08C53.55,54.79,53.89,54.76,54.24,54.74z"/>
	<path class="st1" d="M41.61,54.53c-0.13-0.01-0.27-0.03-0.4-0.05C41.34,54.49,41.47,54.51,41.61,54.53z"/>
	<path class="st1" d="M57.3,54.45c0.34-0.04,0.67-0.08,1.01-0.13C57.97,54.37,57.63,54.41,57.3,54.45z"/>
	<path class="st1" d="M37.71,53.99c0.04,0.01,0.08,0.02,0.13,0.02C37.79,54.01,37.75,54,37.71,53.99z"/>
	<path class="st1" d="M61.47,53.83c0.24-0.04,0.47-0.08,0.71-0.13C61.94,53.75,61.7,53.79,61.47,53.83z"/>
	<path class="st1" d="M44.79,54.79c0.2,0.01,0.4,0.03,0.6,0.04C45.19,54.83,44.99,54.8,44.79,54.79z"/>
	<path class="st0" d="M93.03,24.58C86.24,13.08,75.38,4.92,62.45,1.6C49.52-1.73,36.07,0.18,24.58,6.97
		C13.08,13.76,4.92,24.62,1.59,37.55c-3.32,12.93-1.41,26.38,5.38,37.87c6.79,11.49,17.65,19.65,30.58,22.98
		c4.15,1.07,8.36,1.6,12.53,1.6c8.83,0,17.54-2.36,25.34-6.97c11.49-6.79,19.65-17.65,22.98-30.58
		C101.73,49.52,99.82,36.07,93.03,24.58z M25.7,8.87c7.46-4.41,15.78-6.66,24.22-6.66c3.99,0,8.01,0.51,11.98,1.53
		C74.26,6.91,84.64,14.71,91.13,25.7c1.91,3.23,3.36,6.63,4.45,10.12c2.63,8.39,2.93,17.35,0.69,26.08
		C93.09,74.25,85.29,84.63,74.3,91.13c-10.99,6.49-23.84,8.31-36.2,5.14C25.75,93.08,15.37,85.29,8.88,74.3
		C2.38,63.32,0.56,50.46,3.74,38.1c0.08-0.31,0.2-0.6,0.28-0.91C7.34,25.24,14.99,15.2,25.7,8.87z"/>
	<path class="st0" d="M21.44,78.16C29.31,86.03,39.66,89.97,50,89.97s20.69-3.94,28.56-11.81c9.95-9.95,13.6-23.85,10.97-36.71
		c0,0,0,0,0,0c-0.64,0.51-1.3,1.01-1.97,1.5c0,0,0,0,0,0C89.64,54.8,86.14,67.45,77,76.59c-14.89,14.88-39.11,14.88-54,0
		c-7.21-7.21-11.18-16.8-11.18-27c0-1.88,0.18-3.73,0.45-5.56c0,0,0,0,0,0c-0.69-0.47-1.36-0.95-2.02-1.45c0,0,0,0,0,0
		c-0.4,2.29-0.64,4.63-0.64,7C9.61,60.38,13.81,70.53,21.44,78.16z"/>
	<path class="st2" d="M62.18,53.71c-0.24,0.05-0.47,0.09-0.71,0.13c-1.04,0.19-2.1,0.35-3.16,0.49c-0.34,0.04-0.67,0.09-1.01,0.13
		c-1.01,0.12-2.03,0.21-3.06,0.28c-0.34,0.02-0.68,0.06-1.03,0.08c-1.35,0.08-2.7,0.13-4.07,0.13c-1.26,0-2.51-0.04-3.75-0.1
		c-0.2-0.01-0.4-0.03-0.6-0.04c-1.07-0.07-2.13-0.15-3.18-0.26c-0.13-0.01-0.27-0.03-0.4-0.05c-1.13-0.13-2.26-0.28-3.37-0.47
		c-0.04-0.01-0.09-0.01-0.13-0.02c-1.19-0.2-2.38-0.43-3.55-0.68c0,0,0,0,0,0c0.67,2.86,2.1,5.58,4.33,7.8
		c6.36,6.36,16.67,6.36,23.03,0c2.34-2.34,3.81-5.21,4.43-8.23c-0.01,0-0.01,0-0.02,0C64.69,53.2,63.44,53.46,62.18,53.71z"/>
</g>
</svg>
