<?xml version="1.0" encoding="utf-8"?>
<!-- Generator: Adobe Illustrator 25.0.0, SVG Export Plug-In . SVG Version: 6.00 Build 0)  -->
<svg version="1.1" id="Layer_1" xmlns="http://www.w3.org/2000/svg" xmlns:xlink="http://www.w3.org/1999/xlink" x="0px" y="0px"
	 viewBox="0 0 100 100" style="enable-background:new 0 0 100 100;" xml:space="preserve">
<style type="text/css">
	.st0{fill:#00B2D1;}
	.st1{fill:#F5E748;}
	.st2{fill:#5AC8E1;}
</style>
<g>
	<path class="st0" d="M57.91,76.3l28.46-28.65c1.53-1.54,1.5-4.03-0.06-5.53c-1.53-1.47-3.95-1.44-5.44,0.06L49.89,73.36h0
		L18.91,42.18c-1.49-1.5-3.91-1.53-5.44-0.06c-1.56,1.5-1.59,3.99-0.06,5.53l28.7,28.89c-15.87-1.55-29.78-8.4-39.16-18.36
		c0.98,5.62,2.93,11.07,5.92,16.13C15.36,85.3,25.75,93.1,38.11,96.28c12.35,3.18,25.22,1.35,36.21-5.14
		c13.34-7.89,21.4-21.3,23.08-35.62C88.45,66.46,74.31,74.22,57.91,76.3z M42.11,76.54c2.26,0.22,4.56,0.34,6.9,0.34
		c3.03,0,5.99-0.21,8.89-0.58l-8.01,8.07L42.11,76.54z"/>
	<path class="st1" d="M93.05,24.56C86.26,13.07,75.39,4.9,62.46,1.58C49.53-1.74,36.07,0.16,24.58,6.96
		C13.08,13.75,4.92,24.61,1.59,37.55c-3.33,12.93-1.42,26.39,5.38,37.88c6.79,11.5,17.66,19.66,30.59,22.99
		c4.15,1.07,8.36,1.6,12.54,1.6c8.84,0,17.55-2.36,25.35-6.97C99.18,79.02,107.07,48.3,93.05,24.56z M3.73,38.1
		C6.91,25.74,14.71,15.35,25.7,8.86C33.16,4.45,41.48,2.2,49.93,2.2c3.99,0,8.01,0.5,11.98,1.52C74.27,6.9,84.66,14.7,91.15,25.69
		c5.52,9.34,7.43,19.8,6.25,29.83c-1.68,14.32-9.74,27.74-23.08,35.62c-10.99,6.49-23.86,8.32-36.21,5.14
		C25.75,93.1,15.36,85.3,8.87,74.31C5.88,69.25,3.93,63.8,2.95,58.18C1.81,51.59,2.01,44.77,3.73,38.1z"/>
	<path class="st1" d="M48.82,64.03c0.29,0.29,0.67,0.44,1.07,0.44c0.4,0,0.79-0.16,1.07-0.44l27.8-28.02c0.43-0.43,0.43-1.13,0-1.56
		c-0.44-0.44-1.14-0.43-1.56,0L49.89,61.97L22.58,34.45c-0.43-0.43-1.13-0.44-1.56,0c-0.43,0.43-0.44,1.13,0,1.56L48.82,64.03z"/>
	<path class="st2" d="M57.9,76.3c-2.9,0.37-5.87,0.58-8.89,0.58c-2.33,0-4.63-0.12-6.9-0.34l7.78,7.83L57.9,76.3z"/>
</g>
</svg>
