<svg width="603" height="205" xmlns="http://www.w3.org/2000/svg">
    <g fill-rule="evenodd">
        <path d="M265.043 22.074l.25-14.5c-23.75.75-39.75 17.75-40 48.25l-.5 91c5.25-1.5 10.25-2.75 15-4l.392-69.996c8.357-1.8 16.68-3.423 24.858-4.754l.25-13a559.048 559.048 0 00-25.034 4.548l.034-6.048c0-20.5 8.75-29.75 24.75-31.5M186.043 157.574c5-1.5 10.25-3.25 15.25-4.75l.75-87.25c-5 .75-10.25 2-15.25 3.25l-.75 88.75M52.293 188.574c-20.5 0-34.75-17.5-34.75-37.75 0-21.5 16-37 35-37 21.75 0 34.75 20.5 34.75 37.5 0 21.5-16.75 37.25-35 37.25zm34.5-137.25v62.096c-9.074-9.717-21.186-14.596-34.25-14.596-26 0-52.25 20.25-52.25 52.5 0 26.75 21.5 52.25 51.5 52.25 27.5 0 52-20.75 52-55.5v-97c0-10 1.5-18.75 5.25-27l-19 4.25c-2.75 5.25-3.25 14-3.25 23zM126.543 124.074l-.5 53.75c5.25-2 10.25-4.25 15.5-5.75l.5-50c.25-19 9.5-30.5 27.5-33l.25-16.75c-25.75 1.75-43 20.25-43.25 51.75M194.293 26.074c-6.5 0-12 5.5-12 12s5.5 11.75 12 11.75 12-5.25 12-11.5c0-6.75-5.5-12.25-12-12.25M552.793 2.324c-2 4.75-3 11.25-3 18.75v77.75l13.75.75.5-77.25c0-11 1.75-16.75 3.5-22l-14.75 2M518.543 23.074l-.25 74.75 13.75.25.75-73.25c0-11.5 1.75-17.25 3.5-22.5l-14.75 1.75c-2 5-3 11.5-3 19M307.543 29.574l-15.25 2.25c-2.264 5.208-2.882 12.068-2.98 19.999-3.984.563-8.043 1.147-12.27 1.751l-.25 13.25a695.095 695.095 0 0112.433-2.066l-.433 66.816c5.25-1.5 9.5-2 14.75-3.25l.432-65.642a515.08 515.08 0 0117.568-1.858l.25-13a583.689 583.689 0 00-17.728 2.003c.136-7.994.983-14.127 3.478-20.253M452.043 69.074c0-13.5 9-21 19.25-21 8.192 0 14.302 3.945 17.031 10.497l-36.28 10.56-.001-.057zm22 21.5c-9.58 0-15.892-4.591-19.205-10.578l49.205-14.422c-2.75-21.75-17.5-29.75-33.25-29.75-16.75 0-32.75 13.75-32.75 33.25 0 19 14 33.5 35 33.5 14 0 25.5-7 31.5-16.25l-9.75-7c-3.75 5.75-10.75 11.25-20.75 11.25zM409.543 57.824v24.5c0 11.75-5.25 17.25-12.75 17.25-6.25 0-11.5-4.5-11.5-13.25l.25-44.5-14 1.25-.25 45.75c0 12-7.25 17.5-13.25 17.5-6.5 0-11-4.75-11-13.5l.25-47.75-13.75 1.5-.5 47.75c0 16.5 9.75 24.75 22 24.75 9.567 0 19.251-4.606 24.26-14.563 4.387 5.039 10.833 7.563 17.74 7.563 14 0 26.25-9.25 26.25-28.5v-26.5c0-8 1.25-13.5 3.25-19l-14.25 1.75c-2 4.25-2.75 10.75-2.75 18M594.425.324l1.731 5.482 1.712-5.482h3.95v9.525h-2.526V2.953l-2.068 6.896h-2.156L593 2.967v6.882h-2.53V.324h3.955zm-13.207 2.282V.324h8.408v2.282h-2.839v7.243h-2.774V2.606h-2.795z"/>
    </g>
</svg>
