<?xml version="1.0" encoding="utf-8"?>
<!-- Generator: Adobe Illustrator 25.0.0, SVG Export Plug-In . SVG Version: 6.00 Build 0)  -->
<svg version="1.1" id="Layer_1" xmlns="http://www.w3.org/2000/svg" xmlns:xlink="http://www.w3.org/1999/xlink" x="0px" y="0px"
	 viewBox="0 0 100 100" style="enable-background:new 0 0 100 100;" xml:space="preserve">
<style type="text/css">
	.st0{fill:#FFFFFF;}
</style>
<g>
	<path class="st0" d="M69.49,13.06c9.62,0,17.45,7.83,17.45,17.45v38.98c0,9.62-7.83,17.45-17.45,17.45H30.51
		c-9.62,0-17.45-7.83-17.45-17.45V30.51c0-9.62,7.83-17.45,17.45-17.45H69.49 M69.49,4.69H30.51c-14.26,0-25.82,11.56-25.82,25.82
		v38.98c0,14.26,11.56,25.82,25.82,25.82h38.98c14.26,0,25.82-11.56,25.82-25.82V30.51C95.31,16.25,83.75,4.69,69.49,4.69
		L69.49,4.69z M50,35.14c8.19,0,14.86,6.67,14.86,14.86S58.19,64.86,50,64.86S35.14,58.19,35.14,50S41.81,35.14,50,35.14 M50,26.76
		c-12.83,0-23.24,10.4-23.24,23.24c0,12.83,10.4,23.24,23.24,23.24S73.24,62.83,73.24,50C73.24,37.17,62.83,26.76,50,26.76L50,26.76
		z M73.96,20.32c-2.96,0-5.36,2.4-5.36,5.36s2.4,5.36,5.36,5.36c2.96,0,5.36-2.4,5.36-5.36S76.92,20.32,73.96,20.32z"/>
</g>
</svg>
